PathFileType	4	(X/Y/Z)	/Users/mathieubourgeois/Desktop/Analyse/Traitement/Sujet_01/Data/Transformed_Sujet_01_velo_80.trc
DataRate	CameraRate	NumFrames	NumMarkers	Units	OrigDataRate	OrigDataStartFrame	OrigNumFrames
120.000000	120.000000	5	35	mm	120.000000	1712	1957
Frame#	Time	RFHD			LFHD			RBHD			LBHD			RSHO			LSHO			CLAV			STRN			T10			RBWT			LBWT			RFWT			LFWT			RRAD			RWRA			RWRB			RCAR			RHUM			LHUM			LRAD			LWRA			LWRB			LCAR			RKNI			RKNE			LKNI			LKNE			RANE			RANI			RTOE			RHEE			LTOE			LANI			LANE			LHEE			
		X1	Y1	Z1	X2	Y2	Z2	X3	Y3	Z3	X4	Y4	Z4	X5	Y5	Z5	X6	Y6	Z6	X7	Y7	Z7	X8	Y8	Z8	X9	Y9	Z9	X10	Y10	Z10	X11	Y11	Z11	X12	Y12	Z12	X13	Y13	Z13	X14	Y14	Z14	X15	Y15	Z15	X16	Y16	Z16	X17	Y17	Z17	X18	Y18	Z18	X19	Y19	Z19	X20	Y20	Z20	X21	Y21	Z21	X22	Y22	Z22	X23	Y23	Z23	X24	Y24	Z24	X25	Y25	Z25	X26	Y26	Z26	X27	Y27	Z27	X28	Y28	Z28	X29	Y29	Z29	X30	Y30	Z30	X31	Y31	Z31	X32	Y32	Z32	X33	Y33	Z33	X34	Y34	Z34	X35	Y35	Z35	

1713	14.26666666666667	167.36181640625	1432.814086914062	343.3070373535155	183.97412109375	1436.137939453125	219.6296234130859	52.76912307739254	1531.9140625	336.9345397949218	63.74369812011716	1539.2802734375	205.7890014648437	-14.91229343414311	1378.935180664062	354.9587097167968	-10.47412681579592	1370.953369140625	140.7037658691405	3.706985950469938	1303.000244140625	265.7941589355468	-54.09753036499027	1218.325561523438	262.0646057128906	-228.345703125	1383.312377929688	265.6103820800781	-423.7356567382813	1107.5859375	329.1684570312499	-423.5368347167969	1101.040893554688	209.0843200683593	-251.0089569091797	1075.610473632812	382.750274658203	-241.6603393554688	1073.567993164062	158.5119323730468	130.7825317382812	1168.989013671875	490.5004272460937	296.0696716308593	1024.64990234375	408.0319213867188	318.0816650390624	1044.353393554688	467.7048645019531	399.7008056640624	1035.105834960938	403.918212890625	83.00110626220697	1128.488647460938	464.4378051757812	97.31344604492186	1133.169677734375	83.70123291015619	150.1189270019531	1166.205078125	60.51084136962886	315.4642639160156	1036.787841796875	162.6383514404297	340.6640625	1049.999755859375	99.53202819824216	400.337158203125	1045.412109375	171.5346069335938	2.323267698287921	794.8598022460938	351.8721313476562	-10.76186943054205	830.0555419921875	467.8635864257812	-48.92300033569339	725.6920776367188	203.0958862304687	-76.09690093994142	720.4711303710938	77.70015716552729	-59.92301940917974	488.3377380371094	442.5790100097656	-35.52089309692387	494.7301025390625	364.3482971191406	124.788101196289	436.4224243164062	431.9686584472656	-118.6784286499024	440.1952514648438	396.7872619628906	-163.52197265625	300.5455322265625	129.7588806152343	-268.9877624511719	452.2742004394531	180.5230407714843	-287.48486328125	452.9183959960938	103.6130752563476	-365.0244750976562	450.8710021972656	150.4574127197265	
1714	14.275	167.372802734375	1432.810546875	342.5810546874999	183.7887420654297	1436.223876953125	218.8530120849609	52.85946655273433	1532.044799804688	336.4769592285155	63.76061630249021	1539.466918945312	205.3124084472655	-14.76857852935795	1378.885620117188	354.5821838378906	-10.53857994079592	1370.94482421875	140.1850280761718	3.342652082443205	1303.081420898438	265.3664855957031	-54.11078262329105	1218.50830078125	261.7239074707031	-228.4087829589844	1383.302734375	265.4317321777343	-423.1737976074219	1107.16796875	329.6979675292968	-423.2208557128906	1100.662109375	209.5698242187499	-250.2313385009766	1074.883422851562	382.9525146484374	-241.4976043701172	1073.614990234375	158.6913146972655	130.9320220947265	1168.96142578125	490.3580322265624	296.2801818847656	1024.43017578125	408.2107849121094	318.1787414550781	1044.200439453125	467.9076843261719	399.7743530273437	1035.065063476562	404.1260986328125	83.19412231445307	1128.435424804688	464.2765808105468	97.42202758789061	1133.054321289062	83.62691497802729	150.2425842285156	1166.108520507812	60.43225860595698	315.5612487792969	1036.814208984375	162.8170928955078	340.8147583007812	1049.989379882812	99.72911071777341	400.483642578125	1045.360717773438	171.8008117675781	-2.310953140258832	784.218994140625	351.5212707519531	-14.34494113922125	818.1820678710938	467.3343200683593	-42.68975830078127	732.49267578125	202.439712524414	-70.36665344238283	727.93701171875	76.70575714111322	-57.02769470214849	475.3159484863281	442.3399963378906	-32.86373519897465	482.30029296875	364.4371337890624	127.7975006103515	424.010498046875	432.124267578125	-115.6635360717774	427.8788452148438	396.6950378417969	-166.0322570800782	311.7885437011719	129.897232055664	-268.9766235351562	464.3607788085938	180.4370880126953	-288.1605834960938	465.5162658691406	103.6996154785156	-365.7974853515625	464.4399719238281	150.7659912109374	
1715	14.28333333333333	167.3992919921875	1432.875122070312	341.8279724121093	183.6837463378906	1436.389404296875	218.1082153320312	52.9528312683105	1532.231323242188	335.9597167968749	63.6637153625488	1539.82568359375	204.8114776611327	-14.53060054779057	1378.865234375	354.1372680664062	-10.56155490875246	1370.959106445312	139.5651855468749	3.09381031990048	1303.232788085938	264.9204406738281	-54.02168655395511	1218.7099609375	261.2947387695312	-228.4197692871094	1383.284301757812	265.2576599121093	-422.4365844726563	1106.725341796875	330.3367919921874	-422.8116149902344	1100.28369140625	210.0893554687499	-249.2531738281251	1074.188232421875	383.1795959472655	-241.2856750488282	1073.645385742188	158.8306579589843	131.1499481201171	1168.976196289062	490.2670288085937	296.4616699218749	1024.236206054688	408.4757385253906	318.3122558593749	1044.042114257812	468.1474304199219	399.8441772460937	1035.012939453125	404.3940124511719	83.43276977539057	1128.408325195312	464.2222290039062	97.56997680664061	1132.9228515625	83.5100479125976	150.3995513916016	1166.006225585938	60.30819702148433	315.6859436035156	1036.857788085938	162.9903717041015	340.9794921875	1049.985473632812	99.9425354003906	400.6123352050781	1045.308471679688	172.0681610107422	-6.198344707489056	772.3289184570312	351.0220642089843	-18.2211475372315	806.0396118164062	466.7720336914062	-36.53329086303713	739.7456665039062	201.8311767578124	-64.47361755371095	735.6643676757812	75.80788421630854	-55.06528854370123	462.700439453125	442.2476501464844	-30.93654823303227	469.874755859375	364.4815673828124	129.987808227539	411.2327270507812	432.24462890625	-113.4358139038086	415.6792297363281	396.5348510742188	-167.4018249511719	323.1305847167969	129.8473968505859	-268.7564086914062	476.9362182617188	180.7620544433593	-288.2878723144531	478.2144775390625	103.9005279541015	-366.0174865722656	477.7510986328125	151.3560180664062	
1716	14.29166666666667	167.50634765625	1433.068237304688	341.0585327148436	183.596450805664	1436.688842773438	217.287857055664	53.05986404418941	1532.453247070312	335.384796142578	63.53754043579099	1540.173095703125	204.2513427734374	-14.21656417846684	1378.910034179688	353.6655273437499	-10.56455516815187	1371.0029296875	138.9419555664062	2.950383901596037	1303.442993164062	264.3266601562499	-53.74743270874026	1218.942626953125	260.8553466796874	-228.3397369384766	1383.241333007812	265.0830383300781	-421.5675354003907	1106.306396484375	331.046173095703	-422.3844909667969	1099.931396484375	210.7499084472655	-248.1381378173829	1073.494873046875	383.2593688964843	-241.0513916015625	1073.671020507812	158.8972015380859	131.4572601318359	1169.022705078125	490.2110595703124	296.6106262207031	1024.029052734375	408.7456970214844	318.4580688476562	1043.89501953125	468.4158935546875	399.9293212890624	1034.948852539062	404.6878051757812	83.73003387451166	1128.429809570312	464.2591247558593	97.74132537841795	1132.807250976562	83.39919281005854	150.5516967773438	1165.852294921875	60.17536163330073	315.7792053222656	1036.895263671875	163.1836547851562	341.1655883789062	1049.975830078125	100.1026458740234	400.7405395507812	1045.264892578125	172.3433074951172	-12.08478641510014	760.2863159179688	350.6874694824218	-22.78389930725103	794.1091918945312	466.1235351562499	-31.49842643737795	747.7715454101562	201.5482025146484	-58.46802139282227	743.638916015625	74.88463592529291	-53.79795455932623	450.2042541503906	442.1407470703125	-29.76689147949223	457.5191345214844	364.5363464355469	131.3662567138671	398.3520812988281	432.3917541503906	-111.9435577392579	403.6983642578125	396.310791015625	-170.141357421875	335.3470458984375	131.0591278076171	-267.9753112792969	489.6676330566406	181.1607818603515	-287.8998107910156	491.0675048828125	104.2193222045898	-365.6323547363281	491.145751953125	151.7586822509765	
1717	14.3	167.6594696044922	1433.34619140625	340.2892456054686	183.6533050537109	1437.031982421875	216.5404815673828	53.17837524414058	1532.71533203125	334.7813110351561	63.57384109497067	1540.479125976562	203.6125030517577	-13.79931354522709	1378.965942382812	353.0731201171874	-10.49735927581789	1371.089721679688	138.2456054687499	2.942256450653044	1303.705200195312	263.7555541992187	-53.27811050415042	1219.043090820312	260.0639953613281	-228.1896057128907	1383.195922851562	264.8861389160156	-420.6039123535157	1105.932006835938	331.8187866210936	-421.8963012695312	1099.640625	211.4102325439452	-246.9073486328126	1072.820556640625	383.3077392578124	-240.8303375244141	1073.710083007812	158.9327392578124	131.8041076660156	1169.118408203125	490.2000427246093	296.8007812499999	1023.834838867188	409.0129699707031	318.6553344726562	1043.794921875	468.7392578125	400.0426940917968	1034.8564453125	404.8860168457031	84.01530456542963	1128.50634765625	464.3749999999999	97.92111206054686	1132.686767578125	83.22650909423822	150.7270202636719	1165.70068359375	59.96162414550776	315.9205322265625	1036.942504882812	163.3753204345703	341.3921203613281	1049.940795898438	100.2690200805664	400.8937683105469	1045.190063476562	172.5998229980469	-16.98694610595707	748.6034545898438	350.2083740234374	-27.08495140075689	781.5731201171875	465.4868774414062	-24.46700096130374	755.3824462890625	200.7975463867187	-52.45568466186524	751.8692626953125	73.9809188842773	-53.43916702270513	438.3772583007812	442.2653198242188	-29.15495491027837	445.2624206542969	364.6071166992188	131.9500427246093	385.2390441894531	432.4833984375	-111.3043441772461	392.1457214355469	396.0948791503906	-169.9956970214844	347.5474243164062	131.2149505615234	-266.5390014648438	502.3816528320312	181.5903320312499	-288.2165222167969	504.2616882324219	105.7533950805663	-364.7087097167969	504.3050537109375	152.198028564453	
